<?xml version="1.0" encoding="UTF-8"?>
<svg width="30px" height="30px" viewBox="0 0 30 30" version="1.1" xmlns="http://www.w3.org/2000/svg" xmlns:xlink="http://www.w3.org/1999/xlink">
    <!-- Generator: Sketch 51.3 (57544) - http://www.bohemiancoding.com/sketch -->
    <title>nuage</title>
    <desc>Created with Sketch.</desc>
    <defs>
        <polygon id="path-1" points="0.0001265625 4e-05 26.7464531 4e-05 26.7464531 17.91916 0.0001265625 17.91916"></polygon>
    </defs>
    <g id="nuage" stroke="none" stroke-width="1" fill="none" fill-rule="evenodd">
        <rect fill="#FFFFFF" opacity="0" x="0" y="0" width="30" height="30"></rect>
        <g id="Group" transform="translate(2.000000, 6.000000)">
            <g id="Group-3">
                <mask id="mask-2" fill="white">
                    <use xlink:href="#path-1"></use>
                </mask>
                <g id="Clip-2"></g>
                <path d="M6.12954844,7.40724 C3.36415781,7.40724 1.11472031,9.52804 1.11472031,12.13484 C1.11472031,14.74164 3.36415781,16.86244 6.12954844,16.86244 L17.2737984,16.86244 C21.8827828,16.86244 25.6319859,13.32044 25.6319859,8.96684 C25.6319859,4.60524 21.8827828,1.05684 17.2737984,1.05684 C13.2731578,1.05684 9.82179844,3.76044 9.06748594,7.48524 C9.03500156,7.64604 8.92573594,7.78324 8.77217344,7.85724 C8.61818906,7.93124 8.43720469,7.93324 8.28111094,7.86284 C7.61117344,7.56044 6.88681406,7.40724 6.12954844,7.40724 M17.2737984,17.91924 L6.12954844,17.91924 C2.74990781,17.91924 0.0001265625,15.32444 0.0001265625,12.13484 C0.0001265625,8.94564 2.74990781,6.35044 6.12954844,6.35044 C6.81973594,6.35044 7.48798594,6.45524 8.12417344,6.66244 C9.22062656,2.76564 12.9660328,4e-05 17.2737984,4e-05 C22.4970328,4e-05 26.7465797,4.02244 26.7465797,8.96684 C26.7465797,13.90324 22.4970328,17.91924 17.2737984,17.91924" id="Fill-1" fill="#0060FF" mask="url(#mask-2)"></path>
            </g>
        </g>
    </g>
</svg>