<?xml version="1.0" encoding="UTF-8"?>
<svg width="30px" height="30px" viewBox="0 0 30 30" version="1.1" xmlns="http://www.w3.org/2000/svg" xmlns:xlink="http://www.w3.org/1999/xlink">
    <!-- Generator: Sketch 51.3 (57544) - http://www.bohemiancoding.com/sketch -->
    <title>pluie</title>
    <desc>Created with Sketch.</desc>
    <defs>
        <polygon id="path-1" points="0 0.345081967 13.2129701 0.345081967 13.2129701 13.987541 0 13.987541"></polygon>
    </defs>
    <g id="pluie" stroke="none" stroke-width="1" fill="none" fill-rule="evenodd">
        <rect fill="#FFFFFF" opacity="0" x="0" y="0" width="30" height="30"></rect>
        <g id="Group" transform="translate(0.000000, 3.000000)">
            <g id="Group-20">
                <path d="M8.56975,18.7056148 C8.53933333,18.7056148 8.50808333,18.7031557 8.47641667,18.6978279 C5.57016667,18.2097131 3.46058333,15.7543852 3.46058333,12.8593033 C3.46058333,9.59372951 6.17516667,6.93594262 9.51183333,6.93594262 C10.1930833,6.93594262 10.8526667,7.04331967 11.4805833,7.25561475 C12.5630833,3.26422131 16.2605833,0.432254098 20.5135,0.432254098 C25.66975,0.432254098 29.86475,4.55151639 29.86475,9.61504098 C29.86475,12.8006967 28.22225,15.7084836 25.471,17.394959 C25.21225,17.5527459 24.8735,17.474877 24.7130833,17.2215984 C24.55225,16.9683197 24.6314167,16.6343033 24.8889167,16.4761066 C27.3155833,14.9896311 28.76475,12.4244672 28.76475,9.61504098 C28.76475,5.1482377 25.0635,1.51422131 20.5135,1.51422131 C16.5639167,1.51422131 13.1568333,4.28348361 12.41225,8.09782787 C12.3801667,8.26258197 12.2726667,8.40315574 12.1201667,8.47856557 C11.9685,8.55438525 11.78975,8.55684426 11.6355833,8.48471311 C10.9743333,8.17528689 10.25975,8.01831967 9.51183333,8.01831967 C6.78183333,8.01831967 4.561,10.190041 4.561,12.8593033 C4.561,15.2252869 6.28558333,17.2318443 8.66183333,17.6310246 C8.961,17.6814344 9.16266667,17.9613525 9.11141667,18.2552049 C9.06558333,18.5195492 8.83308333,18.7056148 8.56975,18.7056148" id="Fill-1" fill="#0060FF"></path>
                <path d="M10.3918333,20.037582 C10.1285,19.8884016 10.0385,19.5572541 10.1905833,19.2982377 L11.6205833,16.8617623 C11.77225,16.6031557 12.1089167,16.5142213 12.37225,16.6642213 C12.6351667,16.8134016 12.7255833,17.1441393 12.5730833,17.4027459 L11.1430833,19.8396311 C10.991,20.0982377 10.65475,20.1867623 10.3918333,20.037582" id="Fill-3" fill="#0060FF"></path>
                <path d="M13.9123333,20.037582 C13.649,19.8884016 13.559,19.5572541 13.7110833,19.2982377 L15.1410833,16.8617623 C15.29275,16.6031557 15.6294167,16.5142213 15.89275,16.6642213 C16.1556667,16.8134016 16.2460833,17.1441393 16.094,17.4027459 L14.664,19.8396311 C14.5115,20.0982377 14.1756667,20.1867623 13.9123333,20.037582" id="Fill-5" fill="#0060FF"></path>
                <path d="M17.432875,20.037582 C17.1695417,19.8884016 17.0795417,19.5572541 17.231625,19.2982377 L18.661625,16.8617623 C18.8132917,16.6031557 19.1499583,16.5142213 19.4132917,16.6642213 C19.6762083,16.8134016 19.766625,17.1441393 19.6145417,17.4027459 L18.1845417,19.8396311 C18.0320417,20.0982377 17.6962083,20.1867623 17.432875,20.037582" id="Fill-7" fill="#0060FF"></path>
                <path d="M20.953375,20.037582 C20.6904583,19.8884016 20.6000417,19.5572541 20.752125,19.2982377 L22.182125,16.8617623 C22.3342083,16.6031557 22.6704583,16.5142213 22.9337917,16.6642213 C23.197125,16.8134016 23.287125,17.1441393 23.1350417,17.4027459 L21.7050417,19.8396311 C21.5529583,20.0982377 21.2167083,20.1867623 20.953375,20.037582" id="Fill-9" fill="#0060FF"></path>
                <path d="M9.95158333,24.582582 C9.68866667,24.4334016 9.59825,24.1022541 9.75033333,23.8432377 L11.1803333,21.4067623 C11.3324167,21.1481557 11.6686667,21.0592213 11.932,21.2092213 C12.1953333,21.3584016 12.2853333,21.6891393 12.13325,21.9477459 L10.70325,24.3846311 C10.5511667,24.6432377 10.2149167,24.7317623 9.95158333,24.582582" id="Fill-11" fill="#0060FF"></path>
                <path d="M13.4720833,24.582582 C13.2091667,24.4334016 13.11875,24.1022541 13.27125,23.8432377 L14.70125,21.4067623 C14.8529167,21.1481557 15.1895833,21.0592213 15.4525,21.2092213 C15.7158333,21.3584016 15.8058333,21.6891393 15.65375,21.9477459 L14.22375,24.3846311 C14.0716667,24.6432377 13.7354167,24.7317623 13.4720833,24.582582" id="Fill-13" fill="#0060FF"></path>
                <path d="M16.993,24.582582 C16.7296667,24.4334016 16.63925,24.1022541 16.79175,23.8432377 L18.22175,21.4067623 C18.3734167,21.1481557 18.7100833,21.0592213 18.973,21.2092213 C19.2363333,21.3584016 19.32675,21.6891393 19.17425,21.9477459 L17.74425,24.3846311 C17.5921667,24.6432377 17.2559167,24.7317623 16.993,24.582582" id="Fill-15" fill="#0060FF"></path>
                <g id="Group-19" transform="translate(0.000000, 0.064959)">
                    <mask id="mask-2" fill="white">
                        <use xlink:href="#path-1"></use>
                    </mask>
                    <g id="Clip-18"></g>
                    <path d="M1.49658333,13.987541 C1.29616667,13.987541 1.10241667,13.8789344 1.00533333,13.6908197 C0.33825,12.3953279 -8.33333333e-05,10.9998361 -8.33333333e-05,9.54286885 C-8.33333333e-05,4.4707377 4.19491667,0.344918033 9.35158333,0.344918033 C10.5665833,0.344918033 11.7503333,0.571967213 12.8699167,1.0195082 C13.1515833,1.13262295 13.287,1.44778689 13.172,1.72483607 C13.0578333,2.00188525 12.7374167,2.13467213 12.45575,2.02237705 C11.46825,1.62729508 10.4236667,1.42688525 9.35158333,1.42688525 C4.80158333,1.42688525 1.09991667,5.06745902 1.09991667,9.54286885 C1.09991667,10.8281148 1.39866667,12.0592623 1.987,13.2018852 C2.1245,13.4682787 2.01575,13.7936885 1.74491667,13.9285246 C1.66491667,13.9686885 1.58033333,13.987541 1.49658333,13.987541" id="Fill-17" fill="#FEC701" mask="url(#mask-2)"></path>
                </g>
            </g>
        </g>
    </g>
</svg>