<?xml version="1.0" encoding="UTF-8"?>
<svg width="30px" height="30px" viewBox="0 0 30 30" version="1.1" xmlns="http://www.w3.org/2000/svg" xmlns:xlink="http://www.w3.org/1999/xlink">
    <!-- Generator: Sketch 51.3 (57544) - http://www.bohemiancoding.com/sketch -->
    <title>soleil</title>
    <desc>Created with Sketch.</desc>
    <defs></defs>
    <g id="soleil" stroke="none" stroke-width="1" fill="none" fill-rule="evenodd">
        <rect fill="#FFFFFF" opacity="0" x="0" y="0" width="30" height="30"></rect>
        <g id="Group" transform="translate(3.000000, 3.000000)" fill="#FEC701">
            <g id="Group-19">
                <path d="M11.9237288,3.93909153 C7.52115254,3.93909153 3.93864407,7.52119322 3.93864407,11.9237695 C3.93864407,16.3263458 7.52115254,19.9084475 11.9237288,19.9084475 C16.3263051,19.9084475 19.9088136,16.3263458 19.9088136,11.9237695 C19.9088136,7.52119322 16.3263051,3.93909153 11.9237288,3.93909153 M11.9237288,20.9729898 C6.93376271,20.9729898 2.87450847,16.9137356 2.87450847,11.9237695 C2.87450847,6.93380339 6.93376271,2.87454915 11.9237288,2.87454915 C16.9136949,2.87454915 20.9733559,6.93380339 20.9733559,11.9237695 C20.9733559,16.9137356 16.9136949,20.9729898 11.9237288,20.9729898" id="Fill-1"></path>
                <path d="M12.5624949,0.638766102 C12.5624949,0.991444068 12.2769356,1.27741017 11.9238508,1.27741017 C11.5707661,1.27741017 11.2848,0.991444068 11.2848,0.638766102 C11.2848,0.285681356 11.5707661,0.000122033898 11.9238508,0.000122033898 C12.2769356,0.000122033898 12.5624949,0.285681356 12.5624949,0.638766102" id="Fill-3"></path>
                <path d="M12.5624949,23.2086915 C12.5624949,23.5621831 12.2769356,23.8473356 11.9238508,23.8473356 C11.5707661,23.8473356 11.2848,23.5621831 11.2848,23.2086915 C11.2848,22.8560136 11.5707661,22.5700475 11.9238508,22.5700475 C12.2769356,22.5700475 12.5624949,22.8560136 12.5624949,23.2086915" id="Fill-5"></path>
                <path d="M23.2090983,12.5624949 C22.8556068,12.5624949 22.5696407,12.2769356 22.5696407,11.9238508 C22.5696407,11.5707661 22.8556068,11.2848 23.2090983,11.2848 C23.5617763,11.2848 23.8477424,11.5707661 23.8477424,11.9238508 C23.8477424,12.2769356 23.5617763,12.5624949 23.2090983,12.5624949" id="Fill-7"></path>
                <path d="M0.638766102,12.5624949 C0.285681356,12.5624949 0.000122033898,12.2769356 0.000122033898,11.9238508 C0.000122033898,11.5707661 0.285681356,11.2848 0.638766102,11.2848 C0.991444068,11.2848 1.27781695,11.5707661 1.27781695,11.9238508 C1.27781695,12.2769356 0.991444068,12.5624949 0.638766102,12.5624949" id="Fill-9"></path>
                <path d="M19.4515525,20.3548881 C19.2021966,20.105939 19.2021966,19.7016 19.4515525,19.4514305 C19.7013153,19.2024814 20.1056542,19.2024814 20.3550102,19.4514305 C20.6047729,19.7016 20.6047729,20.105939 20.3550102,20.3548881 C20.1056542,20.6046508 19.7013153,20.6046508 19.4515525,20.3548881" id="Fill-11"></path>
                <path d="M3.49256949,4.39590508 C3.24280678,4.14614237 3.24280678,3.74180339 3.49256949,3.49244746 C3.74151864,3.24268475 4.14585763,3.24268475 4.39562034,3.49244746 C4.64497627,3.74180339 4.64497627,4.14614237 4.39562034,4.39590508 C4.14585763,4.64485424 3.74151864,4.64485424 3.49256949,4.39590508" id="Fill-13"></path>
                <path d="M3.49220339,19.4515525 C3.74155932,19.2026034 4.14589831,19.2026034 4.39566102,19.4515525 C4.64501695,19.7009085 4.64501695,20.1048407 4.39566102,20.3550102 C4.14589831,20.6047729 3.74155932,20.6047729 3.49220339,20.3550102 C3.24284746,20.1056542 3.24284746,19.7009085 3.49220339,19.4515525" id="Fill-15"></path>
                <path d="M19.4515525,3.49220339 C19.7013153,3.24284746 20.1048407,3.24284746 20.3546034,3.49220339 C20.6039593,3.74155932 20.6039593,4.14589831 20.3546034,4.3960678 C20.1048407,4.64501695 19.7013153,4.64501695 19.4515525,4.3960678 C19.2021966,4.14589831 19.2021966,3.74155932 19.4515525,3.49220339" id="Fill-17"></path>
            </g>
        </g>
    </g>
</svg>